<svg xmlns="http://www.w3.org/2000/svg" width="64" height="64" viewBox="0 0 64 64"><defs><linearGradient id="gBg" x1="0" y1="0" x2="0" y2="1"><stop offset="0" stop-color="#27B98A"/><stop offset="1" stop-color="#0B6E55"/></linearGradient></defs>
        <rect width="64" height="64" rx="15" fill="url(#gBg)"></rect>
        <path d="M32 10 L47.6 16.4 L54 32 L47.6 47.6 L32 54 L16.4 47.6 L10 32 L16.4 16.4 Z" fill="none" stroke="#86E9C2" stroke-width="1.5" opacity="0.55" stroke-linejoin="round"></path>
        <g fill="#86E9C2">
          <circle cx="32" cy="10" r="2.6"></circle><circle cx="47.6" cy="16.4" r="2.6"></circle><circle cx="54" cy="32" r="2.6"></circle><circle cx="47.6" cy="47.6" r="2.6"></circle>
          <circle cx="32" cy="54" r="2.6"></circle><circle cx="16.4" cy="47.6" r="2.6"></circle><circle cx="10" cy="32" r="2.6"></circle><circle cx="16.4" cy="16.4" r="2.6"></circle>
        </g>
        <path d="M32 21 L24.5 42 M32 21 L39.5 42" fill="none" stroke="#FFFFFF" stroke-width="5" stroke-linecap="round" stroke-linejoin="round"></path>
        <path d="M27.8 35 H36.2" stroke="#FFFFFF" stroke-width="4.2" stroke-linecap="round"></path>
      </svg>